<svg width="130" height="130" viewBox="0 0 130 130" fill="none" xmlns="http://www.w3.org/2000/svg">
<path d="M107.705 21.7324C107.788 21.7451 107.486 21.7563 106.863 21.7563C102.163 21.7563 97.7786 26.8496 97.7786 33.8168C97.7786 37.3284 98.975 40.4712 100.73 42.6477L103.324 45.8535L99.246 46.4807C96.5647 46.8912 94.7612 48.1138 93.2474 50.1222C91.7336 52.1306 90.621 54.9921 89.8832 58.3345C88.5664 64.2993 88.4638 71.6456 88.4549 78.1788H96.1833L96.3339 80.3929L98.1351 107.458H114.845L116.884 80.3683L117.051 78.1786H125.176C125.115 71.7337 124.765 64.4846 123.311 58.5643C122.496 55.2417 121.335 52.3807 119.836 50.3441C118.337 48.3078 116.612 47.0814 114.234 46.6388L110.243 45.8931L112.854 42.7828C114.689 40.5933 115.948 37.4157 115.948 33.8166C115.948 27.281 112.012 22.2877 107.752 21.7403L107.704 21.7327L107.705 21.7324ZM45.561 22.5894C33.9067 22.5909 20.21 23.9536 4.52344 27.1355V31.9918C72.5749 22.4327 91.2438 41.6783 61.9697 52.1377C32.1797 62.7814 8.5217 116.188 102.444 120.843C103.551 120.954 104.691 121.018 105.855 121.018C111.512 121.018 116.606 119.633 120.106 117.566C123.606 115.499 125.335 112.96 125.335 110.481C125.335 108.001 123.606 105.463 120.106 103.395C120.048 103.36 119.984 103.326 119.924 103.292L119.416 110.013L119.249 112.21H93.692L93.5491 109.989L92.7163 97.4204C60.167 98.1313 51.2645 71.9002 72.3799 64.2932C77.5558 62.4285 81.7963 60.2723 85.1227 57.9379C85.1658 57.7292 85.2039 57.5177 85.2496 57.3108C86.0779 53.5596 87.3459 50.075 89.463 47.2657C90.7188 45.5994 92.3169 44.2011 94.2161 43.2109C93.4229 32.4079 76.8654 22.5845 45.5608 22.5894H45.561Z" fill="white"/>
</svg>
