<svg width="130" height="130" viewBox="0 0 130 130" fill="none" xmlns="http://www.w3.org/2000/svg">
<path d="M59.5833 70.4167C61.1181 70.4167 62.4054 69.8967 63.4454 68.8567C64.4854 67.8167 65.0036 66.5311 65 65C64.9964 63.4689 64.4764 62.1833 63.44 61.1433C62.4036 60.1033 61.1181 59.5833 59.5833 59.5833C58.0486 59.5833 56.7631 60.1033 55.7267 61.1433C54.6903 62.1833 54.1703 63.4689 54.1667 65C54.1631 66.5311 54.6831 67.8185 55.7267 68.8621C56.7703 69.9057 58.0558 70.4239 59.5833 70.4167ZM37.9167 113.75V102.917L70.4167 97.5V32.3646L37.9167 27.0833V16.25L81.25 23.2917V106.437L37.9167 113.75ZM16.25 113.75V102.917H27.0833V16.25H102.917V102.917H113.75V113.75H16.25ZM37.9167 102.917H92.0833V27.0833H37.9167V102.917Z" fill="white"/>
</svg>
