<svg width="130" height="130" viewBox="0 0 130 130" fill="none" xmlns="http://www.w3.org/2000/svg">
<path d="M95.1212 79.2675H31.7066L10.5684 100.406V15.8529C10.5684 14.4514 11.1251 13.1072 12.1162 12.1162C13.1072 11.1251 14.4514 10.5684 15.8529 10.5684H95.1212C96.5228 10.5684 97.8669 11.1251 98.8579 12.1162C99.849 13.1072 100.406 14.4514 100.406 15.8529V73.983C100.406 75.3845 99.849 76.7287 98.8579 77.7197C97.8669 78.7108 96.5228 79.2675 95.1212 79.2675ZM121.544 47.5602V121.544L100.406 100.406H42.2757C40.8741 100.406 39.53 99.849 38.5389 98.8579C37.5479 97.8669 36.9911 96.5228 36.9911 95.1212V89.8366H110.975V42.2757H116.259C117.661 42.2757 119.005 42.8324 119.996 43.8235C120.987 44.8145 121.544 46.1587 121.544 47.5602ZM43.2797 21.1375C38.6822 21.1375 34.983 22.1944 32.1293 24.2554C29.3814 26.422 28.0074 29.4342 28.0602 33.609L28.1131 33.7675H38.3123C38.3651 32.1822 38.8407 30.9667 39.7919 30.1212C40.7705 29.3097 42.0088 28.8782 43.2797 28.9058C44.9179 28.9058 46.2919 29.4342 47.2432 30.3854C48.1944 31.3895 48.6171 32.7635 48.6171 34.3488C48.6171 36.0399 48.2472 37.4667 47.4017 38.6822C46.6619 39.8976 45.5521 40.9545 44.1781 41.8001C41.483 43.5968 39.6334 45.1822 38.6293 46.609C37.5724 47.983 36.9911 50.2025 36.9911 52.8448H47.5602C47.5602 51.2066 47.7716 49.8854 48.2472 48.9342C48.7228 47.983 49.6212 47.0318 50.9423 46.1862C53.3204 44.9179 55.2757 43.3854 56.8082 41.2716C58.3407 39.1578 59.1334 36.9911 59.1334 34.3488C59.1334 30.3326 57.7066 27.109 54.8529 24.731C52.0521 22.3529 48.1944 21.1375 43.2797 21.1375ZM36.9911 58.1293V68.6984H47.5602V58.1293H36.9911ZM68.6984 68.6984H79.2675V58.1293H68.6984V68.6984ZM68.6984 21.1375V52.8448H79.2675V21.1375H68.6984Z" fill="white"/>
</svg>
