<svg width="130" height="130" viewBox="0 0 130 130" fill="none" xmlns="http://www.w3.org/2000/svg">
<circle cx="65" cy="65" r="65" fill="#7962A5"/>
<path d="M65.3414 72.575C67.2584 72.575 69.0968 71.8135 70.4523 70.458C71.8078 69.1025 72.5694 67.264 72.5694 65.3471C72.5694 63.4301 71.8078 61.5917 70.4523 60.2362C69.0968 58.8807 67.2584 58.1191 65.3414 58.1191C63.4245 58.1191 61.586 58.8807 60.2305 60.2362C58.875 61.5917 58.1135 63.4301 58.1135 65.3471C58.1135 67.264 58.875 69.1025 60.2305 70.458C61.586 71.8135 63.4245 72.575 65.3414 72.575ZM43.6576 72.575C45.5746 72.575 47.413 71.8135 48.7685 70.458C50.124 69.1025 50.8856 67.264 50.8856 65.3471C50.8856 63.4301 50.124 61.5917 48.7685 60.2362C47.413 58.8807 45.5746 58.1191 43.6576 58.1191C41.7407 58.1191 39.9022 58.8807 38.5467 60.2362C37.1912 61.5917 36.4297 63.4301 36.4297 65.3471C36.4297 67.264 37.1912 69.1025 38.5467 70.458C39.9022 71.8135 41.7407 72.575 43.6576 72.575ZM87.0252 72.575C88.9422 72.575 90.7806 71.8135 92.1361 70.458C93.4916 69.1025 94.2532 67.264 94.2532 65.3471C94.2532 63.4301 93.4916 61.5917 92.1361 60.2362C90.7806 58.8807 88.9422 58.1191 87.0252 58.1191C85.1083 58.1191 83.2698 58.8807 81.9143 60.2362C80.5588 61.5917 79.7973 63.4301 79.7973 65.3471C79.7973 67.264 80.5588 69.1025 81.9143 70.458C83.2698 71.8135 85.1083 72.575 87.0252 72.575Z" fill="white"/>
</svg>
