<svg width="121" height="111" viewBox="0 0 121 111" fill="none" xmlns="http://www.w3.org/2000/svg">
<path fill-rule="evenodd" clip-rule="evenodd" d="M109.688 44.2578L114.086 47.7791C114.962 48.4615 116.071 48.7712 117.174 48.6411C118.276 48.511 119.283 47.9516 119.976 47.0841C120.669 46.2166 120.992 45.111 120.875 44.0071C120.758 42.9031 120.21 41.8897 119.351 41.1866L73.6481 4.62407C69.9076 1.6308 65.2595 0 60.4688 0C55.678 0 51.0299 1.6308 47.2894 4.62407L1.58625 41.1866C0.71203 41.8855 0.151264 42.9031 0.0273143 44.0155C-0.0966355 45.1279 0.226384 46.2439 0.925312 47.1181C1.62424 47.9924 2.64183 48.5531 3.75421 48.6771C4.86659 48.801 5.98266 48.478 6.85688 47.7791L11.25 44.2578V102.139H4.21875C3.09987 102.139 2.02681 102.584 1.23564 103.375C0.444474 104.166 0 105.239 0 106.358C0 107.477 0.444474 108.55 1.23564 109.341C2.02681 110.132 3.09987 110.577 4.21875 110.577H116.719C117.838 110.577 118.911 110.132 119.702 109.341C120.493 108.55 120.938 107.477 120.938 106.358C120.938 105.239 120.493 104.166 119.702 103.375C118.911 102.584 117.838 102.139 116.719 102.139H109.688V44.2578ZM45 36.0453C45 31.9428 46.6297 28.0082 49.5307 25.1073C52.4316 22.2063 56.3662 20.5766 60.4688 20.5766C64.5713 20.5766 68.5059 22.2063 71.4068 25.1073C74.3078 28.0082 75.9375 31.9428 75.9375 36.0453C75.9375 40.1479 74.3078 44.0824 71.4068 46.9834C68.5059 49.8843 64.5713 51.5141 60.4688 51.5141C56.3662 51.5141 52.4316 49.8843 49.5307 46.9834C46.6297 44.0824 45 40.1479 45 36.0453ZM60.75 57.1391C64.485 57.1391 67.7081 57.1391 70.29 57.4878C73.0575 57.8591 75.7069 58.6972 77.8556 60.8459C80.0044 62.9947 80.8425 65.6441 81.2137 68.4116C81.54 70.8303 81.5625 73.8116 81.5625 77.2597V102.139H73.125V78.2328C73.125 74.1378 73.1137 71.4828 72.855 69.5366C72.6075 67.7084 72.2137 67.1347 71.8875 66.8141C71.5612 66.4934 70.9931 66.0941 69.165 65.8466C67.2131 65.5878 64.5637 65.5766 60.4688 65.5766C56.3738 65.5766 53.7188 65.5878 51.7725 65.8466C49.9444 66.0941 49.3706 66.4934 49.05 66.8141C48.7294 67.1347 48.33 67.7084 48.0825 69.5366C47.8238 71.4884 47.8125 74.1378 47.8125 78.2328V102.139H39.375V77.9516C39.375 74.2166 39.375 70.9934 39.7238 68.4116C40.095 65.6441 40.9331 62.9947 43.0819 60.8459C45.2306 58.6972 47.8856 57.8591 50.6475 57.4878C53.2294 57.1391 56.4525 57.1391 60.1931 57.1391H60.75Z" fill="white"/>
</svg>
