<svg width="73" height="73" viewBox="0 0 73 73" fill="none" xmlns="http://www.w3.org/2000/svg">
<path fill-rule="evenodd" clip-rule="evenodd" d="M49.0473 36.4992C49.0473 35.8941 48.8069 35.3139 48.3791 34.8861C47.9513 34.4582 47.371 34.2179 46.766 34.2179H13.3898L19.3545 29.1079C19.5822 28.913 19.7693 28.6751 19.905 28.4079C20.0408 28.1407 20.1226 27.8493 20.1457 27.5505C20.1689 27.2517 20.133 26.9512 20.04 26.6663C19.947 26.3813 19.7989 26.1175 19.6039 25.8898C19.409 25.6621 19.1712 25.4751 18.9039 25.3393C18.6367 25.2036 18.3454 25.1218 18.0465 25.0986C17.7477 25.0755 17.4473 25.1114 17.1623 25.2043C16.8774 25.2973 16.6135 25.4455 16.3859 25.6404L5.74002 34.7654C5.48958 34.9796 5.28852 35.2454 5.15066 35.5447C5.01279 35.844 4.94141 36.1696 4.94141 36.4992C4.94141 36.8287 5.01279 37.1543 5.15066 37.4536C5.28852 37.7529 5.48958 38.0187 5.74002 38.2329L16.3859 47.3579C16.8457 47.7516 17.443 47.9465 18.0465 47.8997C18.6501 47.8529 19.2103 47.5683 19.6039 47.1085C19.9976 46.6487 20.1925 46.0513 20.1457 45.4478C20.0989 44.8443 19.8143 44.2841 19.3545 43.8904L13.3929 38.7804H46.766C47.371 38.7804 47.9513 38.5401 48.3791 38.1122C48.8069 37.6844 49.0473 37.1042 49.0473 36.4992Z" fill="white"/>
<path d="M28.5156 24.334C28.5156 26.4692 28.5156 27.5369 29.0297 28.3064C29.2511 28.6373 29.5353 28.9215 29.8661 29.1429C30.6357 29.6569 31.7033 29.6569 33.8385 29.6569H46.7656C48.5807 29.6569 50.3214 30.3779 51.6049 31.6614C52.8883 32.9448 53.6094 34.6856 53.6094 36.5006C53.6094 38.3157 52.8883 40.0565 51.6049 41.3399C50.3214 42.6234 48.5807 43.3444 46.7656 43.3444H33.8385C31.7033 43.3444 30.6357 43.3444 29.8661 43.8554C29.535 44.0777 29.2507 44.3629 29.0297 44.6949C28.5156 45.4644 28.5156 46.5321 28.5156 48.6673C28.5156 57.2691 28.5156 61.5731 31.1892 64.2437C33.8598 66.9173 38.1607 66.9173 46.7626 66.9173H49.8043C58.4122 66.9173 62.71 66.9173 65.3837 64.2437C68.0573 61.5731 68.0573 57.2691 68.0573 48.6673V24.334C68.0573 15.7322 68.0573 11.4282 65.3837 8.75761C62.71 6.08703 58.4091 6.08398 49.8073 6.08398H46.7656C38.1608 6.08398 33.8598 6.08398 31.1892 8.75761C28.5156 11.4282 28.5156 15.7322 28.5156 24.334Z" fill="white"/>
</svg>
