<svg width="128" height="128" viewBox="0 0 128 128" fill="none" xmlns="http://www.w3.org/2000/svg">
<path d="M7.08722 89.8358L0 39.5277H21.2617C21.2617 33.6585 22.8563 28.3282 26.0455 23.537C29.2348 18.7457 33.5462 15.2122 38.9797 12.9364C39.3341 9.22314 40.8696 6.13998 43.5864 3.68686C46.3032 1.23374 49.4924 0.00479124 53.1542 0C57.0521 0 60.3902 1.40863 63.1684 4.22588C65.9466 7.04313 67.3333 10.4257 67.3286 14.3737C67.3239 18.3217 65.9372 21.7067 63.1684 24.5288C60.3997 27.3508 57.0616 28.757 53.1542 28.7474C51.6186 28.7474 50.2011 28.5366 48.9018 28.115C47.6025 27.6934 46.3032 27.0058 45.0039 26.0524C42.169 27.0106 39.8963 28.7474 38.1859 31.2628C36.4756 33.7783 35.618 36.5332 35.6133 39.5277H127.57L120.483 89.8358H101.524L102.765 77.4384C103.355 71.5692 101.732 66.4785 97.8958 62.1664C94.0592 57.8542 89.2447 55.6982 83.452 55.6982H44.118C38.3301 55.6982 33.5178 57.8542 29.6813 62.1664C25.8447 66.4785 24.2194 71.5692 24.8053 77.4384L26.0455 89.8358H7.08722ZM40.22 127.567L35.4361 76.3604C35.1999 73.7252 35.9086 71.4206 37.5623 69.4467C39.216 67.4727 41.4012 66.4833 44.118 66.4785H83.452C86.1688 66.4785 88.354 67.4679 90.0077 69.4467C91.6614 71.4254 92.3701 73.73 92.1339 76.3604L87.35 127.567H40.22Z" fill="white"/>
</svg>
