<svg width="128" height="128" viewBox="0 0 128 128" fill="none" xmlns="http://www.w3.org/2000/svg">
<path fill-rule="evenodd" clip-rule="evenodd" d="M63.7849 7.0081e-10C72.1612 -3.92626e-05 80.4556 1.64973 88.1943 4.85512C95.9331 8.06052 102.965 12.7587 108.888 18.6816C114.811 24.6044 119.509 31.6358 122.715 39.3744C125.92 47.1129 127.57 55.4071 127.57 63.7832C127.57 99.0099 99.0124 127.567 63.7849 127.567C28.5576 127.567 0 99.0099 0 63.7832C0 28.5569 28.5576 7.0081e-10 63.7849 7.0081e-10ZM70.1636 70.1618H57.4065C41.6152 70.1618 28.058 79.7254 22.2106 93.3773C31.4626 106.351 46.6359 114.81 63.7849 114.81C80.9338 114.81 96.1071 106.351 105.359 93.3764C99.512 79.7254 85.9548 70.1618 70.1636 70.1618ZM63.7849 19.135C53.2167 19.135 44.6494 27.7021 44.6494 38.27C44.6494 48.8379 53.2167 57.405 63.7849 57.405C74.353 57.405 82.9203 48.8379 82.9203 38.27C82.9203 27.7021 74.3533 19.135 63.7849 19.135Z" fill="white"/>
</svg>
