<svg width="79" height="73" viewBox="0 0 79 73" fill="none" xmlns="http://www.w3.org/2000/svg">
<path d="M69.0199 40.0719C69.1874 38.9314 69.2712 37.7528 69.2712 36.4982C69.2712 35.2816 69.1874 34.065 68.978 32.9244L77.4809 26.9174C78.2348 26.3851 78.4443 25.3586 77.9835 24.5982L69.9414 11.976C69.4388 11.1395 68.3916 10.8734 67.4701 11.1395L57.4593 14.7894C55.365 13.3446 53.1451 12.128 50.6738 11.2156L49.1659 1.55878C48.9983 0.646321 48.1606 0 47.1554 0H31.0711C30.0658 0 29.27 0.646321 29.1025 1.55878L27.5946 11.2156C25.1233 12.128 22.8614 13.3827 20.809 14.7894L10.7982 11.1395C9.87674 10.8354 8.82959 11.1395 8.32696 11.976L0.326713 24.5982C-0.17592 25.3966 -0.00837624 26.3851 0.829346 26.9174L9.33222 32.9244C9.12279 34.065 8.95525 35.3196 8.95525 36.4982C8.95525 37.6768 9.03902 38.9314 9.24845 40.0719L0.745574 46.0789C-0.00837617 46.6112 -0.217806 47.6377 0.242941 48.3981L8.28507 61.0204C8.7877 61.8568 9.83486 62.1229 10.7563 61.8568L20.7671 58.207C22.8614 59.6517 25.0814 60.8683 27.5527 61.7808L29.0606 71.4376C29.27 72.35 30.0658 72.9963 31.0711 72.9963H47.1554C48.1606 72.9963 48.9984 72.35 49.124 71.4376L50.6319 61.7808C53.1032 60.8683 55.365 59.6517 57.4175 58.207L67.4282 61.8568C68.3497 62.1609 69.3969 61.8568 69.8995 61.0204L77.9416 48.3981C78.4443 47.5617 78.2348 46.6112 77.439 46.0789L69.0199 40.0719ZM39.1132 50.185C30.8198 50.185 24.0342 44.0259 24.0342 36.4982C24.0342 28.9704 30.8198 22.8114 39.1132 22.8114C47.4067 22.8114 54.1922 28.9704 54.1922 36.4982C54.1922 44.0259 47.4067 50.185 39.1132 50.185Z" fill="white"/>
</svg>
