<svg width="130" height="130" viewBox="0 0 130 130" fill="none" xmlns="http://www.w3.org/2000/svg">
<path d="M37.917 11.334H69.917V49.6338L70.6738 49.1797L83.958 41.209L97.2432 49.1797L98 49.6338V11.334H102.917C108.328 11.3342 113.25 16.2559 113.25 21.667V108.334C113.25 113.745 108.328 118.667 102.917 118.667H37.917C32.5056 118.667 27.583 113.745 27.583 108.334V103.417H38.417V91.584H27.583V70.917H38.417V59.084H27.583V38.417H38.417V26.584H27.583V21.667C27.5831 18.9265 28.6726 16.2982 30.6104 14.3604C32.5482 12.4227 35.1766 11.334 37.917 11.334ZM26.583 92.584V102.417H16.75V92.584H26.583ZM26.583 60.084V69.917H16.75V60.084H26.583ZM26.583 27.584V37.417H16.75V27.584H26.583Z" fill="white" stroke="#023D3C"/>
</svg>
