<svg width="76" height="76" viewBox="0 0 76 76" fill="none" xmlns="http://www.w3.org/2000/svg">
<g clip-path="url(#clip0_485_185)">
<path d="M23.6257 75.3595C18.6049 64.9081 21.2801 58.9218 25.1376 53.2793C29.3624 47.0998 30.4551 40.9863 30.4551 40.9863C30.4551 40.9863 33.7803 45.3053 32.4474 52.0641C38.316 45.5314 39.4276 35.1177 38.5374 31.1284C51.8053 40.4023 57.4761 60.4808 49.8366 75.3642C90.4881 52.3655 59.9488 17.95 54.6313 14.0737C56.4022 17.95 56.7413 24.5109 53.1571 27.6995C47.0954 4.71971 32.113 0.00976562 32.113 0.00976562C33.884 11.86 25.6887 24.8218 17.7854 34.5054C17.5075 29.7813 17.2107 26.5173 14.7286 21.9958C14.1728 30.582 7.61188 37.581 5.83152 46.1814C3.42473 57.8291 7.63543 66.3588 23.621 75.3689L23.6257 75.3595Z" fill="#49416D"/>
</g>
<defs>
<clipPath id="clip0_485_185">
<rect width="75.3592" height="75.3592" fill="white"/>
</clipPath>
</defs>
</svg>
